<mxfile host="Electron" modified="2023-07-05T15:05:26.152Z" agent="Mozilla/5.0 (Macintosh; Intel Mac OS X 10_15_7) AppleWebKit/537.36 (KHTML, like Gecko) draw.io/21.5.1 Chrome/112.0.5615.204 Electron/24.6.0 Safari/537.36" etag="iSK3YGW3AZ4scWCqpBfj" version="21.5.1" type="device">
  <diagram name="Page-1" id="ZeSG-YaCpiliAiGkDpan">
    <mxGraphModel dx="1310" dy="670" grid="1" gridSize="10" guides="1" tooltips="1" connect="1" arrows="1" fold="1" page="1" pageScale="1" pageWidth="850" pageHeight="1100" math="0" shadow="0">
      <root>
        <mxCell id="0" />
        <mxCell id="1" parent="0" />
        <mxCell id="B8jp8aGC-okqcsoF1911-4" value="" style="edgeStyle=orthogonalEdgeStyle;rounded=0;orthogonalLoop=1;jettySize=auto;html=1;" edge="1" parent="1" source="B8jp8aGC-okqcsoF1911-1" target="B8jp8aGC-okqcsoF1911-2">
          <mxGeometry relative="1" as="geometry" />
        </mxCell>
        <mxCell id="B8jp8aGC-okqcsoF1911-1" value="" style="ellipse;whiteSpace=wrap;html=1;aspect=fixed;fillColor=#2B2B2B;perimeterSpacing=0;strokeColor=#000000;" vertex="1" parent="1">
          <mxGeometry x="410" y="10" width="40" height="40" as="geometry" />
        </mxCell>
        <mxCell id="B8jp8aGC-okqcsoF1911-7" value="" style="edgeStyle=orthogonalEdgeStyle;rounded=0;orthogonalLoop=1;jettySize=auto;html=1;" edge="1" parent="1" source="B8jp8aGC-okqcsoF1911-2" target="B8jp8aGC-okqcsoF1911-5">
          <mxGeometry relative="1" as="geometry" />
        </mxCell>
        <mxCell id="B8jp8aGC-okqcsoF1911-2" value="Get Member information" style="rounded=1;whiteSpace=wrap;html=1;" vertex="1" parent="1">
          <mxGeometry x="370" y="90" width="120" height="60" as="geometry" />
        </mxCell>
        <mxCell id="B8jp8aGC-okqcsoF1911-5" value="" style="rhombus;whiteSpace=wrap;html=1;" vertex="1" parent="1">
          <mxGeometry x="415" y="190" width="30" height="30" as="geometry" />
        </mxCell>
      </root>
    </mxGraphModel>
  </diagram>
</mxfile>
